<?xml version="1.0" encoding="UTF-8"?>
<svg version="1.1" xmlns="http://www.w3.org/2000/svg" width="500" height="500">
<path d="M0 0 C165 0 330 0 500 0 C500 165 500 330 500 500 C335 500 170 500 0 500 C0 335 0 170 0 0 Z " fill="#0369A1" transform="translate(0,0)"/>
<path d="M0 0 C19.8 0 39.6 0 60 0 C60 81.18 60 162.36 60 246 C40.2 246 20.4 246 0 246 C-0.33 221.58 -0.66 197.16 -1 172 C-5.29 175.63 -9.58 179.26 -14 183 C-16.42678691 184.93768521 -18.85065552 186.8599509 -21.3125 188.75 C-25.88447587 192.29080344 -30.30497071 195.91787498 -34.546875 199.85546875 C-36 201 -36 201 -38 201 C-33.4090077 206.89477863 -28.65341582 212.61449212 -23.75 218.25 C-22.92411377 219.19939453 -22.92411377 219.19939453 -22.08154297 220.16796875 C-20.38835853 222.112558 -18.69421376 224.05630753 -17 226 C-14.80727479 228.51635603 -12.62023806 231.03747819 -10.4375 233.5625 C-9.94926758 234.12163086 -9.46103516 234.68076172 -8.95800781 235.25683594 C-8.49620117 235.79211914 -8.03439453 236.32740234 -7.55859375 236.87890625 C-6.96002563 237.56835327 -6.96002563 237.56835327 -6.34936523 238.27172852 C-4.41612753 240.74782581 -2.73414504 243.38204807 -1 246 C-11.06618847 246.11595537 -21.13221753 246.20474653 -31.19893837 246.25906086 C-35.87358856 246.28513194 -40.54778114 246.32048415 -45.22216797 246.37719727 C-49.73500426 246.4316064 -54.24740098 246.46143927 -58.76054001 246.47438622 C-60.48054294 246.48361018 -62.20052237 246.5016229 -63.92033768 246.52865028 C-66.33364706 246.56506071 -68.74515064 246.56994061 -71.15869141 246.56762695 C-71.86647736 246.58560333 -72.57426331 246.60357971 -73.30349731 246.62210083 C-78.9027738 246.56418869 -81.16964432 244.76107908 -85 241 C-85.79798004 241.81329269 -86.59596008 242.62658539 -87.41812134 243.46452332 C-91.49423697 246.83509148 -95.19531575 246.67486371 -100.31005859 246.56762695 C-101.68662628 246.56872215 -101.68662628 246.56872215 -103.09100342 246.56983948 C-106.1107588 246.56636853 -109.12895309 246.52753037 -112.1484375 246.48828125 C-114.24735675 246.47895138 -116.34628691 246.47183609 -118.44522095 246.46684265 C-123.95939395 246.44778669 -129.47290447 246.39869734 -134.98681641 246.34332275 C-140.61742187 246.29210039 -146.24813477 246.26932219 -151.87890625 246.24414062 C-162.91956129 246.19057777 -173.95972547 246.10528144 -185 246 C-181.48309866 242.45167464 -177.88660201 239.08771599 -174.0625 235.875 C-173.50038818 235.40054443 -172.93827637 234.92608887 -172.35913086 234.43725586 C-167.76095001 230.58180427 -163.05116047 226.88266076 -158.31176758 223.20336914 C-153.4092683 219.37475713 -148.68747986 215.35989035 -143.98876953 211.28515625 C-139.81394083 207.67116083 -135.54959367 204.19873201 -131.18359375 200.81640625 C-128.62762645 198.69024383 -126.32101231 196.37811982 -124 194 C-130.05608008 186.47293406 -136.30561308 179.14047073 -142.6484375 171.85546875 C-145.93002375 168.08613073 -149.18756738 164.29664066 -152.4375 160.5 C-152.90905518 159.94916748 -153.38061035 159.39833496 -153.86645508 158.83081055 C-154.77624044 157.7677575 -155.68265821 156.70181184 -156.58544922 155.6328125 C-157.60265604 154.45865316 -158.64992812 153.31029546 -159.71533203 152.1796875 C-160.27462402 151.57382812 -160.83391602 150.96796875 -161.41015625 150.34375 C-161.92843994 149.79912109 -162.44672363 149.25449219 -162.98071289 148.69335938 C-164 147 -164 147 -163.78540039 144.90991211 C-162.6271556 142.09332866 -160.77842296 140.90937811 -158.375 139.0625 C-153.7071454 135.37894074 -149.16655516 131.59847704 -144.6875 127.6875 C-143.41411761 126.58066576 -142.14067965 125.47389545 -140.8671875 124.3671875 C-138.91963693 122.67233483 -136.97302137 120.97644213 -135.02832031 119.27832031 C-133.12635356 117.61919819 -131.21984614 115.96543236 -129.3125 114.3125 C-128.73653076 113.8074292 -128.16056152 113.3023584 -127.56713867 112.78198242 C-124.85383165 110.43674561 -122.32843179 108.38482199 -119 107 C-113.18035974 113.28132362 -107.59447736 119.65095512 -102.21484375 126.31640625 C-100.04367173 128.94708557 -97.79758643 131.47942424 -95.5 134 C-90.7919058 139.1690265 -86.39650938 144.56601645 -82 150 C-80.34120892 152.00678921 -78.67209535 154.00427329 -77 156 C-72.11839881 152.45844619 -67.45581569 148.7336011 -62.875 144.8125 C-58.35570224 140.9454041 -53.7635044 137.20633758 -49.0625 133.5625 C-44.25823029 129.83436005 -39.59205587 125.98645364 -35 122 C-29.42103528 117.15679146 -23.69896366 112.55822051 -17.83984375 108.05859375 C-17.27947418 107.59434998 -16.71910461 107.1301062 -16.14175415 106.65179443 C-14 105 -14 105 -10.83358765 103.0557251 C-6.36092929 100.11101111 -2.02575834 97.03348011 -0.25225258 91.78868294 C0.91577638 85.36608233 0.63966017 78.86163309 0.48828125 72.36328125 C0.48646973 70.27149689 0.49040153 68.17970042 0.49980164 66.0879364 C0.50912514 60.6137703 0.44104005 55.14326928 0.35620117 49.66986084 C0.27050521 43.08623235 0.28203563 36.50212669 0.27706146 29.91803741 C0.25874282 19.94303575 0.1178257 9.97655314 0 0 Z " fill="#FEFEFE" transform="translate(343,110)"/>
<path d="M0 0 C19.8 0 39.6 0 60 0 C60 24.42 60 48.84 60 74 C67.24423891 68.37601685 67.24423891 68.37601685 74.375 62.625 C75.29410156 61.86960938 76.21320313 61.11421875 77.16015625 60.3359375 C78.09730469 59.56507813 79.03445312 58.79421875 80 58 C81.93714661 56.41623433 83.87463986 54.83289254 85.8125 53.25 C89.55811516 50.18589362 93.29062435 47.10785528 97 44 C91.6905541 36.56677574 85.67378981 29.79750436 79.67382812 22.92382812 C77.11780139 19.98603777 74.58459714 17.02943948 72.0625 14.0625 C71.22847656 13.08410156 70.39445312 12.10570313 69.53515625 11.09765625 C67.55571064 8.72511041 65.68988319 6.28232398 63.84155273 3.80639648 C63.04055397 2.73457375 63.04055397 2.73457375 62.22337341 1.64109802 C61.81966019 1.09953568 61.41594696 0.55797333 61 0 C71.06618847 -0.11595537 81.13221753 -0.20474653 91.19893837 -0.25906086 C95.87358856 -0.28513194 100.54778114 -0.32048415 105.22216797 -0.37719727 C109.73500426 -0.4316064 114.24740098 -0.46143927 118.76054001 -0.47438622 C120.48054294 -0.48361018 122.20052237 -0.5016229 123.92033768 -0.52865028 C126.33364706 -0.56506071 128.74515064 -0.56994061 131.15869141 -0.56762695 C131.86647736 -0.58560333 132.57426331 -0.60357971 133.30349731 -0.62210083 C138.9027738 -0.56418869 141.16964432 1.23892092 145 5 C145.79798004 4.18670731 146.59596008 3.37341461 147.41812134 2.53547668 C151.49423697 -0.83509148 155.19531575 -0.67486371 160.31005859 -0.56762695 C161.68662628 -0.56872215 161.68662628 -0.56872215 163.09100342 -0.56983948 C166.1107588 -0.56636853 169.12895309 -0.52753037 172.1484375 -0.48828125 C174.24735675 -0.47895138 176.34628691 -0.47183609 178.44522095 -0.46684265 C183.95939395 -0.44778669 189.47290447 -0.39869734 194.98681641 -0.34332275 C200.61742187 -0.29210039 206.24813477 -0.26932219 211.87890625 -0.24414062 C222.91956129 -0.19057777 233.95972547 -0.10528144 245 0 C241.41030838 3.62529687 237.72250456 7.0380026 233.8125 10.3125 C233.24225098 10.79251465 232.67200195 11.2725293 232.08447266 11.76708984 C227.91740007 15.26239254 223.69397628 18.68146042 219.43359375 22.0625 C215.48960404 25.20249823 211.59617919 28.40348303 207.70166016 31.60449219 C205.70396727 33.24277232 203.70144353 34.87507449 201.69921875 36.5078125 C200.17438488 37.75509307 198.64964532 39.00248895 197.125 40.25 C196.39917725 40.84055176 195.67335449 41.43110352 194.92553711 42.03955078 C191.07704291 45.1949322 187.44462981 48.40677831 184 52 C189.68097212 58.73217562 195.3787071 65.44845188 201.125 72.125 C205.46449869 77.16897179 209.70908776 82.2781804 213.8828125 87.4609375 C216.66096796 90.79267376 219.63515569 93.92300439 222.6640625 97.02734375 C224 99 224 99 224 101.0078125 C222.61563309 103.76573095 220.8216295 105.0574204 218.375 106.9375 C213.7071454 110.62105926 209.16655516 114.40152296 204.6875 118.3125 C203.41411761 119.41933424 202.14067965 120.52610455 200.8671875 121.6328125 C198.91963693 123.32766517 196.97302137 125.02355787 195.02832031 126.72167969 C193.12635356 128.38080181 191.21984614 130.03456764 189.3125 131.6875 C188.73653076 132.1925708 188.16056152 132.6976416 187.56713867 133.21801758 C184.85383165 135.56325439 182.32843179 137.61517801 179 139 C173.27651703 132.82246202 167.76830035 126.56562022 162.4765625 120.01171875 C159.56676041 116.47314239 156.57282661 113.01554741 153.5625 109.5625 C147.94582366 103.11863143 142.43972277 96.59397546 137 90 C131.42559084 94.04417919 126.16049042 98.35858317 120.92553711 102.82495117 C116.83165986 106.31245942 112.6706778 109.70064168 108.45703125 113.04296875 C103.93215119 116.64704651 99.47206897 120.3307709 95 124 C93.16689838 125.50028317 91.33356573 127.00028408 89.5 128.5 C88.5925 129.2425 87.685 129.985 86.75 130.75 C84 133 81.25 135.25 78.5 137.5 C77.60539062 138.2321875 76.71078125 138.964375 75.7890625 139.71875 C73.82642767 141.32404236 71.86295334 142.9282639 69.8984375 144.53125 C68.90070313 145.3459375 67.90296875 146.160625 66.875 147 C65.96492188 147.7425 65.05484375 148.485 64.1171875 149.25 C63.04918385 150.13277792 61.97977769 151.02022231 61 152 C60.87470812 154.92117732 60.81389328 157.81985241 60.79467773 160.74243164 C60.78477814 161.6594133 60.77487854 162.57639496 60.76467896 163.52116394 C60.73296351 166.56746799 60.70826701 169.61378767 60.68359375 172.66015625 C60.66303288 174.76623451 60.64203666 176.87230856 60.62062073 178.9783783 C60.56531043 184.53338218 60.5159408 190.08842385 60.46777344 195.64349365 C60.40881315 202.3023214 60.3425361 208.96107978 60.27747345 215.61985016 C60.1793513 225.74652457 60.09057233 235.87324256 60 246 C40.2 246 20.4 246 0 246 C0 164.82 0 83.64 0 0 Z " fill="#FEFEFE" transform="translate(97,110)"/>
<path d="M0 0 C26.07 0 52.14 0 79 0 C79 0.33 79 0.66 79 1 C40.885 1.495 40.885 1.495 2 2 C5.3 5.63 8.6 9.26 12 13 C14.17514679 15.64800478 16.34992228 18.29644373 18.5 20.96484375 C22.06506027 25.29304973 25.76475263 29.50179135 29.48364258 33.69824219 C32.65095086 37.3072417 35.43247366 40.94044867 38 45 C32.34898454 50.19412484 26.61296802 55.19994636 20.5859375 59.953125 C16.86712638 62.89671568 13.20805489 65.91184857 9.54296875 68.921875 C8.70378906 69.60765625 7.86460937 70.2934375 7 71 C6.10925781 71.74765625 5.21851563 72.4953125 4.30078125 73.265625 C2 75 2 75 0 75 C0 50.25 0 25.5 0 0 Z " fill="#0369A1" transform="translate(157,109)"/>
</svg>
